<svg xmlns="http://www.w3.org/2000/svg" xmlns:xlink="http://www.w3.org/1999/xlink" width="496" zoomAndPan="magnify" viewBox="0 0 372 356.250003" height="475" preserveAspectRatio="xMidYMid meet" version="1.2"><g id="38c5cf0015"><path style=" stroke:none;fill-rule:nonzero;fill:#5a5d60;fill-opacity:1;" d="M 188.996094 3.832031 L 189.570312 3.925781 C 190.210938 4.03125 190.851562 4.136719 191.492188 4.242188 L 192.894531 4.476562 C 198.523438 5.410156 204.136719 6.425781 209.75 7.433594 L 212.039062 7.84375 L 212.609375 7.949219 C 215.675781 8.496094 218.742188 9.03125 221.808594 9.550781 C 224.867188 10.074219 227.925781 10.609375 230.980469 11.164062 C 232.332031 11.410156 233.683594 11.652344 235.039062 11.898438 L 235.867188 12.046875 C 243.78125 13.476562 251.699219 14.867188 259.621094 16.246094 L 261.679688 16.605469 L 262.195312 16.695312 C 264.722656 17.136719 267.25 17.578125 269.777344 18.023438 C 277.378906 19.363281 277.378906 19.363281 284.988281 20.648438 C 287.855469 21.121094 290.71875 21.628906 293.582031 22.132812 C 299.53125 23.179688 305.480469 24.21875 311.4375 25.242188 C 312.28125 25.386719 313.125 25.53125 313.96875 25.679688 C 320 26.726562 320 26.726562 326.0625 27.558594 L 326.714844 27.632812 L 327.273438 27.699219 C 327.722656 27.773438 327.722656 27.773438 328.234375 28.027344 C 328.246094 42.835938 328.257812 57.640625 328.265625 72.449219 L 328.265625 73.117188 C 328.273438 80.46875 328.273438 87.820312 328.277344 95.171875 C 328.28125 102.707031 328.285156 110.242188 328.292969 117.777344 C 328.300781 126.628906 328.304688 135.480469 328.308594 144.328125 L 328.308594 144.984375 C 328.308594 148.445312 328.3125 151.90625 328.316406 155.367188 C 328.320312 158.855469 328.320312 162.347656 328.320312 165.835938 C 328.320312 167.722656 328.320312 169.609375 328.324219 171.496094 C 328.347656 181.613281 328.234375 191.648438 326.414062 201.632812 L 326.304688 202.234375 C 325.070312 208.925781 323.421875 215.511719 321.351562 221.992188 C 321.234375 222.371094 321.117188 222.75 321.003906 223.132812 C 314.863281 242.773438 303.960938 261.886719 289.648438 278.808594 C 289.039062 279.523438 288.453125 280.25 287.867188 280.980469 C 286.6875 282.429688 285.414062 283.785156 284.136719 285.148438 C 283.578125 285.746094 283.03125 286.351562 282.5 286.96875 C 279.953125 289.898438 277.226562 292.652344 274.484375 295.398438 L 274.03125 295.851562 C 272.570312 297.320312 271.113281 298.777344 269.539062 300.121094 C 268.835938 300.722656 268.167969 301.359375 267.492188 301.992188 C 266.25 303.148438 264.972656 304.238281 263.648438 305.300781 C 262.996094 305.835938 262.378906 306.390625 261.757812 306.960938 C 260.34375 308.25 258.839844 309.417969 257.328125 310.585938 C 256.878906 310.933594 256.433594 311.285156 255.988281 311.636719 C 252.574219 314.34375 249.082031 316.941406 245.507812 319.433594 C 244.820312 319.910156 244.136719 320.394531 243.453125 320.875 C 241.007812 322.59375 238.554688 324.28125 236.003906 325.839844 C 234.957031 326.480469 233.921875 327.144531 232.886719 327.808594 C 230.296875 329.472656 227.679688 331.074219 225.007812 332.609375 L 224.390625 332.964844 C 221.636719 334.558594 218.859375 336.113281 216.058594 337.632812 C 214.859375 338.28125 213.660156 338.941406 212.472656 339.617188 C 211.046875 340.429688 209.609375 341.214844 208.136719 341.941406 L 206.484375 342.765625 C 205.441406 343.285156 204.398438 343.808594 203.359375 344.332031 C 195.019531 348.515625 195.019531 348.515625 191.667969 350.117188 L 190.976562 350.445312 C 190.585938 350.632812 190.191406 350.816406 189.796875 350.996094 C 189.421875 351.171875 189.050781 351.351562 188.683594 351.539062 C 187.691406 351.832031 186.78125 351.859375 185.757812 351.726562 C 184.894531 351.464844 184.109375 351.085938 183.304688 350.691406 L 182.546875 350.332031 C 181.769531 349.960938 180.996094 349.585938 180.222656 349.207031 C 179.566406 348.886719 178.90625 348.566406 178.25 348.246094 C 174.714844 346.527344 171.183594 344.800781 167.660156 343.058594 L 167.066406 342.765625 C 164.695312 341.59375 162.34375 340.378906 160.011719 339.125 L 159.546875 338.875 C 157.453125 337.75 155.371094 336.609375 153.304688 335.4375 C 152.640625 335.058594 151.972656 334.683594 151.300781 334.316406 C 144.714844 330.695312 138.328125 326.753906 132.070312 322.589844 L 131.59375 322.273438 C 129.308594 320.75 127.066406 319.179688 124.839844 317.570312 C 124.617188 317.410156 124.394531 317.25 124.167969 317.085938 C 121.597656 315.222656 119.085938 313.304688 116.621094 311.304688 C 116.039062 310.835938 115.449219 310.375 114.859375 309.914062 C 111.921875 307.625 109.011719 305.292969 106.265625 302.773438 C 105.738281 302.292969 105.199219 301.820312 104.65625 301.355469 C 103.859375 300.664062 103.117188 299.933594 102.378906 299.179688 C 101.917969 298.726562 101.441406 298.304688 100.949219 297.882812 C 99.882812 296.957031 98.882812 295.984375 97.886719 294.984375 L 97.339844 294.441406 C 96.964844 294.0625 96.589844 293.6875 96.210938 293.308594 C 95.640625 292.738281 95.070312 292.167969 94.496094 291.597656 L 93.394531 290.492188 L 92.882812 289.984375 C 91.90625 289 90.964844 287.984375 90.0625 286.933594 C 89.449219 286.226562 88.808594 285.546875 88.167969 284.867188 C 87.023438 283.636719 85.925781 282.363281 84.875 281.054688 C 84.289062 280.328125 83.6875 279.621094 83.085938 278.910156 C 81.835938 277.410156 80.667969 275.859375 79.507812 274.292969 C 78.832031 273.386719 78.144531 272.492188 77.453125 271.597656 C 75.753906 269.394531 74.128906 267.132812 72.589844 264.8125 L 72.257812 264.3125 C 65.753906 254.539062 60.273438 244.148438 56.023438 233.207031 L 55.710938 232.417969 C 48.707031 214.550781 45.941406 196.003906 45.300781 176.945312 L 45.269531 175.941406 C 45.035156 168.988281 44.988281 162.039062 44.992188 155.082031 C 44.992188 153.546875 44.992188 152.011719 44.988281 150.480469 C 44.984375 146.976562 44.984375 143.476562 44.984375 139.972656 C 44.988281 136.292969 44.984375 132.609375 44.984375 128.929688 C 44.980469 123.472656 44.980469 118.015625 44.980469 112.558594 L 44.980469 106.972656 C 44.984375 100.476562 44.980469 93.980469 44.976562 87.484375 C 44.96875 79.371094 44.964844 71.257812 44.96875 63.152344 L 44.96875 62.570312 C 44.96875 59.671875 44.96875 56.773438 44.964844 53.878906 C 44.960938 50.59375 44.960938 47.3125 44.964844 44.027344 C 44.96875 42.351562 44.96875 40.679688 44.964844 39.003906 C 44.960938 37.472656 44.960938 35.945312 44.964844 34.414062 C 44.964844 33.859375 44.964844 33.300781 44.964844 32.746094 C 44.960938 31.996094 44.964844 31.246094 44.964844 30.496094 L 44.960938 29.832031 C 44.964844 29.230469 44.964844 29.230469 45.0625 28.28125 C 45.820312 27.777344 46.070312 27.695312 46.933594 27.609375 L 47.628906 27.535156 L 48.390625 27.453125 C 50.960938 27.15625 53.507812 26.761719 56.054688 26.308594 L 56.605469 26.207031 C 58.6875 25.832031 60.765625 25.453125 62.84375 25.0625 L 65.148438 24.632812 L 65.738281 24.523438 C 70.113281 23.710938 74.5 22.972656 78.886719 22.238281 C 81.671875 21.769531 84.449219 21.285156 87.222656 20.765625 C 90.371094 20.175781 93.53125 19.644531 96.691406 19.128906 C 102.964844 18.105469 109.222656 17.007812 115.472656 15.871094 L 116.074219 15.765625 C 117.625 15.480469 119.179688 15.199219 120.734375 14.914062 C 123.660156 14.382812 126.589844 13.863281 129.523438 13.355469 C 134.371094 12.515625 139.210938 11.628906 144.050781 10.746094 C 148.472656 9.941406 152.894531 9.144531 157.324219 8.378906 C 160.5 7.832031 163.664062 7.242188 166.828125 6.640625 C 171.171875 5.8125 175.515625 5.027344 179.878906 4.308594 L 180.578125 4.191406 C 181.234375 4.082031 181.890625 3.972656 182.546875 3.867188 C 182.734375 3.835938 182.921875 3.804688 183.117188 3.773438 C 185.121094 3.457031 186.992188 3.503906 188.996094 3.832031 M 177.308594 20.035156 C 174.820312 20.53125 172.324219 20.984375 169.832031 21.441406 C 168.625 21.664062 167.417969 21.886719 166.210938 22.113281 C 158.613281 23.523438 151.003906 24.894531 143.398438 26.261719 C 139.699219 26.925781 136.003906 27.59375 132.3125 28.265625 C 129.84375 28.714844 127.378906 29.164062 124.914062 29.613281 C 117.601562 30.945312 110.289062 32.269531 102.964844 33.550781 C 98.085938 34.40625 93.203125 35.28125 88.328125 36.167969 L 87.410156 36.335938 C 83.8125 36.988281 80.214844 37.648438 76.621094 38.320312 L 75.449219 38.539062 C 73.398438 38.921875 71.347656 39.285156 69.285156 39.609375 L 68.726562 39.695312 C 67.867188 39.828125 67.003906 39.960938 66.140625 40.085938 C 64.609375 40.320312 63.261719 40.558594 61.882812 41.28125 L 61.628906 41.535156 C 61.605469 42.3125 61.59375 43.085938 61.597656 43.859375 L 61.597656 44.613281 C 61.59375 45.457031 61.597656 46.296875 61.597656 47.140625 L 61.59375 48.957031 C 61.59375 50.453125 61.59375 51.949219 61.59375 53.445312 C 61.59375 54.6875 61.59375 55.929688 61.59375 57.171875 L 61.59375 58.808594 C 61.59375 63.125 61.59375 67.441406 61.597656 71.757812 L 61.597656 77.269531 C 61.601562 90.089844 61.613281 102.90625 61.632812 115.722656 C 61.644531 126.035156 61.660156 136.34375 61.691406 146.65625 L 61.691406 147.242188 L 61.695312 147.828125 L 61.695312 148.410156 L 61.699219 149.574219 C 61.707031 152.457031 61.710938 155.335938 61.71875 158.214844 C 61.722656 161.496094 61.730469 164.773438 61.742188 168.054688 C 61.75 169.71875 61.753906 171.386719 61.757812 173.054688 C 61.773438 188.316406 63.089844 203.363281 68 217.914062 L 68.246094 218.644531 C 70.390625 225.113281 72.953125 231.398438 75.902344 237.539062 L 76.183594 238.125 C 79.671875 245.382812 83.734375 252.4375 88.34375 259.042969 C 88.523438 259.300781 88.703125 259.558594 88.886719 259.820312 C 90.199219 261.695312 91.5625 263.527344 92.980469 265.320312 C 93.289062 265.730469 93.597656 266.136719 93.90625 266.546875 C 95.042969 268.042969 96.234375 269.484375 97.46875 270.90625 C 98.230469 271.785156 98.976562 272.679688 99.703125 273.589844 C 101.050781 275.246094 102.515625 276.785156 103.984375 278.335938 C 104.4375 278.816406 104.890625 279.300781 105.335938 279.789062 C 109.179688 283.964844 109.179688 283.964844 113.351562 287.804688 C 113.933594 288.308594 114.496094 288.828125 115.058594 289.355469 C 116.441406 290.648438 117.855469 291.882812 119.332031 293.066406 C 119.984375 293.601562 120.605469 294.15625 121.222656 294.726562 C 122.785156 296.144531 124.445312 297.425781 126.113281 298.710938 L 126.722656 299.179688 C 129.792969 301.542969 132.894531 303.859375 136.054688 306.101562 L 136.679688 306.546875 C 139.191406 308.332031 141.726562 310.070312 144.324219 311.730469 C 145.195312 312.285156 146.0625 312.847656 146.925781 313.417969 C 149.640625 315.199219 152.359375 316.960938 155.171875 318.589844 L 155.757812 318.933594 C 159.015625 320.835938 162.328125 322.617188 165.683594 324.34375 C 166.5625 324.800781 167.4375 325.261719 168.308594 325.722656 C 170.253906 326.753906 172.210938 327.761719 174.183594 328.738281 C 175.035156 329.160156 175.882812 329.589844 176.730469 330.023438 C 179.246094 331.300781 181.773438 332.550781 184.355469 333.691406 L 185.003906 333.988281 C 186.09375 334.457031 187.074219 334.808594 188.289062 334.746094 C 189.378906 334.546875 190.359375 334.085938 191.363281 333.628906 L 192.074219 333.3125 C 194 332.453125 195.886719 331.527344 197.761719 330.5625 C 198.40625 330.234375 199.058594 329.910156 199.707031 329.589844 C 203.113281 327.902344 206.492188 326.144531 209.820312 324.304688 C 210.46875 323.949219 211.121094 323.597656 211.773438 323.242188 C 215.554688 321.179688 219.261719 318.988281 222.894531 316.667969 C 223.589844 316.226562 224.285156 315.789062 224.984375 315.351562 C 227.847656 313.539062 230.652344 311.6875 233.382812 309.675781 C 234.429688 308.90625 235.496094 308.171875 236.574219 307.441406 C 238.273438 306.277344 239.941406 305.066406 241.574219 303.808594 L 242.085938 303.414062 C 245.582031 300.722656 249.027344 297.972656 252.386719 295.113281 C 253.25 294.378906 254.121094 293.65625 255.003906 292.945312 C 257.378906 291.003906 259.5625 288.910156 261.710938 286.730469 C 262.515625 285.925781 263.324219 285.117188 264.132812 284.316406 C 264.730469 283.722656 265.328125 283.125 265.921875 282.53125 C 266.234375 282.21875 266.546875 281.910156 266.863281 281.597656 C 268.515625 279.957031 270.152344 278.320312 271.652344 276.535156 C 271.898438 276.25 272.148438 275.964844 272.394531 275.679688 C 274.042969 273.777344 275.625 271.835938 277.164062 269.84375 C 277.515625 269.394531 277.867188 268.953125 278.222656 268.507812 C 280.867188 265.179688 283.28125 261.699219 285.667969 258.183594 L 286.210938 257.390625 C 290.847656 250.503906 294.914062 243.28125 298.414062 235.753906 L 298.746094 235.042969 C 305.191406 221.296875 309.558594 206.546875 310.816406 191.394531 C 310.871094 190.785156 310.921875 190.171875 310.976562 189.558594 C 311.542969 182.941406 311.484375 176.320312 311.480469 169.683594 C 311.476562 168.140625 311.480469 166.601562 311.480469 165.058594 C 311.484375 161.71875 311.484375 158.378906 311.480469 155.039062 C 311.480469 152.121094 311.480469 149.203125 311.480469 146.285156 L 311.480469 143.328125 C 311.480469 135.949219 311.480469 128.570312 311.476562 121.191406 C 311.476562 114.636719 311.476562 108.082031 311.476562 101.527344 C 311.480469 93.363281 311.480469 85.199219 311.480469 77.035156 L 311.480469 76.449219 C 311.480469 73.527344 311.480469 70.609375 311.480469 67.6875 C 311.484375 64.371094 311.480469 61.054688 311.480469 57.738281 C 311.476562 56.046875 311.476562 54.355469 311.480469 52.664062 C 311.480469 51.117188 311.480469 49.570312 311.476562 48.023438 C 311.476562 47.460938 311.476562 46.898438 311.480469 46.335938 C 311.480469 45.578125 311.480469 44.820312 311.476562 44.058594 L 311.480469 43.390625 C 311.476562 42.855469 311.445312 42.324219 311.410156 41.792969 L 310.902344 41.027344 C 310.398438 40.824219 310.398438 40.824219 309.800781 40.71875 L 309.097656 40.570312 L 308.320312 40.421875 L 307.492188 40.253906 C 305.066406 39.78125 302.628906 39.410156 300.1875 39.046875 C 296.683594 38.511719 293.199219 37.855469 289.714844 37.203125 C 284.394531 36.203125 284.394531 36.203125 279.058594 35.292969 C 275.460938 34.710938 271.875 34.050781 268.289062 33.394531 C 264.449219 32.691406 260.605469 31.992188 256.757812 31.339844 C 249.09375 30.042969 241.449219 28.65625 233.804688 27.265625 L 233.269531 27.167969 C 231.660156 26.875 230.046875 26.578125 228.433594 26.285156 C 223.589844 25.402344 218.738281 24.535156 213.886719 23.6875 C 208.523438 22.75 203.171875 21.746094 197.824219 20.730469 L 196.285156 20.4375 C 195.65625 20.320312 195.03125 20.203125 194.402344 20.082031 C 188.441406 18.953125 183.269531 18.847656 177.308594 20.035156 "/><path style=" stroke:none;fill-rule:nonzero;fill:#c3a45a;fill-opacity:1;" d="M 95.785156 59.121094 C 96.296875 59.890625 96.402344 60.269531 96.550781 61.160156 C 97.503906 66.566406 99.257812 71.257812 101.628906 76.183594 L 101.886719 76.714844 C 103.457031 79.976562 105.230469 83.117188 107.300781 86.09375 L 107.648438 86.59375 C 109.992188 89.933594 112.566406 93.09375 115.269531 96.144531 C 115.695312 96.625 116.117188 97.109375 116.539062 97.59375 C 118.988281 100.394531 121.550781 103.035156 124.328125 105.511719 C 124.585938 105.75 124.84375 105.984375 125.101562 106.226562 C 126.746094 107.753906 128.429688 109.214844 130.191406 110.609375 C 130.433594 110.800781 130.675781 110.992188 130.925781 111.191406 C 137.457031 116.308594 144.550781 120.691406 151.714844 124.867188 C 157.113281 128.015625 162.328125 131.4375 167.40625 135.078125 L 168.015625 135.515625 C 171.609375 138.101562 174.949219 140.875 178.195312 143.886719 C 178.75 144.390625 179.316406 144.886719 179.894531 145.367188 C 185.277344 150.046875 189.507812 156.320312 192.703125 162.652344 L 192.9375 163.117188 C 194.148438 165.582031 195.121094 168.128906 195.953125 170.746094 L 196.21875 171.582031 C 197.496094 175.695312 198.359375 179.851562 199.109375 184.089844 L 199.261719 184.941406 L 199.394531 185.703125 C 199.492188 186.308594 199.492188 186.308594 199.773438 186.816406 C 201.644531 178.707031 201.597656 170.25 199.222656 162.246094 C 196.382812 153.460938 190.863281 145.980469 184.226562 139.664062 C 183.75 139.238281 183.269531 138.8125 182.78125 138.398438 C 178.152344 134.355469 174.128906 129.992188 171.992188 124.117188 C 170.003906 117.835938 169.773438 110.953125 171.144531 104.5 C 172.527344 98.605469 175.101562 93.574219 178.621094 88.6875 C 179.050781 88.070312 179.480469 87.445312 179.910156 86.824219 L 180.492188 85.984375 L 180.914062 85.375 L 180.460938 85.316406 C 176.609375 84.726562 172.628906 83.40625 169.539062 80.96875 C 168.605469 80.191406 167.75 79.355469 166.894531 78.492188 L 166.324219 77.949219 C 164.335938 75.921875 163.035156 73.171875 162.308594 70.449219 C 162.074219 69.367188 161.976562 68.378906 162.050781 67.277344 C 162.667969 67.875 163.253906 68.464844 163.796875 69.125 C 166.128906 71.921875 169.289062 73.730469 172.679688 74.984375 C 173.773438 75.351562 174.882812 75.632812 176.007812 75.898438 L 176.640625 76.046875 C 181.808594 77.164062 187.058594 77.007812 192.316406 76.933594 C 197.386719 76.867188 202.285156 77.015625 207.167969 78.527344 L 207.929688 78.757812 C 216.085938 81.296875 223.039062 85.683594 228.84375 91.957031 C 229.917969 93.160156 230.8125 94.433594 231.632812 95.824219 L 231.9375 96.332031 C 232.261719 96.871094 232.578125 97.414062 232.894531 97.960938 L 233.183594 98.464844 C 233.773438 99.519531 234.148438 100.515625 234.4375 101.6875 L 233.484375 101.371094 L 232.84375 101.160156 C 232.371094 101 231.898438 100.835938 231.425781 100.664062 C 227.085938 99.121094 222.496094 98.988281 217.980469 99.800781 C 214.402344 100.515625 211.394531 101.929688 208.582031 104.238281 C 207.316406 105.429688 206.441406 106.78125 205.636719 108.316406 L 205.335938 108.886719 C 203.988281 111.660156 203.898438 114.71875 204.109375 117.746094 C 204.753906 123.234375 207.914062 127.546875 211.121094 131.855469 C 211.636719 132.550781 212.164062 133.238281 212.699219 133.917969 C 218.722656 141.527344 222.546875 150.613281 224.09375 160.1875 C 225.355469 169.113281 224.675781 178.714844 221.433594 187.15625 C 218.628906 194.097656 214.738281 200.296875 209.867188 205.96875 C 209.5 206.398438 209.136719 206.835938 208.78125 207.28125 C 207.035156 209.417969 205.101562 211.359375 203.152344 213.308594 L 202.730469 213.730469 C 201.195312 215.265625 199.648438 216.765625 197.992188 218.167969 C 197.703125 218.417969 197.414062 218.671875 197.128906 218.921875 C 195.3125 220.492188 193.445312 222.003906 191.53125 223.453125 C 190.789062 224.019531 190.058594 224.597656 189.324219 225.175781 C 187.121094 226.914062 184.898438 228.628906 182.648438 230.308594 C 180.636719 231.816406 178.6875 233.390625 176.773438 235.023438 L 176.324219 235.402344 C 175.585938 236.035156 174.886719 236.679688 174.210938 237.378906 L 173.523438 238.046875 L 173.011719 238.046875 L 172.804688 238.507812 C 172.503906 239.066406 172.210938 239.414062 171.753906 239.851562 L 171.304688 240.285156 L 170.828125 240.742188 C 169.316406 242.226562 167.933594 243.757812 166.640625 245.441406 L 166.082031 246.148438 C 161.25 252.40625 157.070312 259.96875 155.933594 267.871094 L 155.796875 268.828125 C 155.292969 272.996094 155.496094 277.371094 157.082031 281.28125 C 157.429688 282.058594 157.800781 282.824219 158.195312 283.578125 L 158.484375 284.183594 L 158.230469 284.691406 C 155.925781 283.617188 153.859375 282.453125 151.855469 280.867188 L 151.140625 280.308594 C 147.117188 277.097656 144.273438 273.425781 141.917969 268.890625 L 141.535156 268.167969 C 138.914062 262.839844 138.539062 256.878906 138.859375 251.046875 C 139.492188 244.898438 142.246094 239.292969 145.785156 234.3125 C 148.140625 231.0625 150.941406 228.234375 153.761719 225.394531 C 154.027344 225.125 154.292969 224.859375 154.558594 224.589844 C 156.09375 223.035156 157.660156 221.585938 159.371094 220.21875 C 160.304688 219.460938 161.179688 218.648438 162.050781 217.816406 L 162.597656 217.300781 C 167.277344 212.855469 167.277344 212.855469 171.484375 207.972656 C 171.902344 207.476562 172.320312 206.984375 172.742188 206.492188 C 175.316406 203.394531 178.097656 199.851562 179.382812 195.992188 C 178.425781 196.164062 177.527344 196.421875 176.601562 196.730469 C 171.238281 198.476562 165.707031 200.070312 160.023438 200.132812 L 159.453125 200.140625 C 158.84375 200.144531 158.234375 200.148438 157.625 200.152344 L 156.992188 200.152344 C 153.246094 200.15625 149.667969 199.796875 145.996094 199.050781 C 145.578125 198.972656 145.164062 198.898438 144.75 198.820312 C 137.398438 197.386719 130.640625 193.917969 124.3125 190.019531 L 123.824219 189.71875 C 122.835938 189.097656 122.0625 188.429688 121.269531 187.582031 L 121.796875 187.691406 C 122.601562 187.859375 123.410156 188.023438 124.21875 188.1875 L 125.042969 188.359375 C 128.804688 189.121094 132.417969 189.464844 136.246094 189.445312 L 136.894531 189.445312 C 139.996094 189.433594 142.964844 189.304688 145.996094 188.601562 C 146.429688 188.511719 146.863281 188.421875 147.300781 188.332031 C 150.175781 187.710938 152.898438 186.832031 155.632812 185.75 C 156.421875 185.457031 157.226562 185.222656 158.035156 184.992188 L 158.484375 184.777344 L 158.738281 184.015625 C 159.265625 183.839844 159.265625 183.839844 159.757812 183.757812 L 159.503906 182.996094 C 157.722656 183.144531 155.984375 183.40625 154.230469 183.742188 C 143.996094 185.644531 132.996094 185.816406 123.027344 182.429688 C 115.128906 179.5 107.921875 174.160156 102.535156 167.699219 C 102.042969 167.039062 101.578125 166.359375 101.136719 165.664062 L 100.617188 164.863281 C 97.820312 160.441406 97.820312 160.441406 97.3125 158.269531 C 98.878906 158.578125 100.320312 159.015625 101.804688 159.59375 C 108.425781 162.085938 115.0625 163.46875 122.066406 164.324219 L 122.742188 164.40625 C 126.871094 164.90625 130.960938 165.195312 135.121094 165.1875 C 135.738281 165.183594 136.355469 165.1875 136.976562 165.1875 C 140.101562 165.246094 140.101562 165.246094 143.191406 164.898438 L 143.957031 164.386719 L 143.957031 163.878906 L 143.496094 163.800781 C 140.890625 163.355469 138.328125 162.898438 135.792969 162.125 C 134.421875 161.722656 133.019531 161.421875 131.625 161.105469 C 123.441406 159.238281 115.671875 157.042969 108.199219 153.144531 C 107.8125 152.945312 107.425781 152.75 107.039062 152.558594 C 102.824219 150.390625 99.363281 147.324219 96.039062 143.996094 L 95.5 143.488281 C 90.371094 138.558594 86.792969 131.671875 84.824219 124.882812 C 83.636719 120.546875 82.953125 116.339844 82.988281 111.839844 C 82.992188 111.222656 82.992188 110.605469 82.992188 109.984375 L 82.996094 108.792969 L 82.996094 108.238281 C 83.007812 107.296875 83.070312 106.425781 83.292969 105.511719 C 83.875 106.089844 84.074219 106.582031 84.410156 107.328125 C 85.460938 109.46875 86.917969 111.289062 88.390625 113.15625 L 89 113.941406 C 91.144531 116.640625 93.589844 118.933594 96.292969 121.058594 C 96.566406 121.277344 96.839844 121.496094 97.109375 121.71875 C 100.324219 124.292969 103.640625 126.714844 107.253906 128.707031 C 107.609375 128.90625 107.960938 129.105469 108.316406 129.308594 C 117.816406 134.671875 130.019531 140.699219 141.121094 140.957031 L 141.660156 140.9375 C 141.546875 140.445312 141.546875 140.445312 141.152344 139.917969 C 140.484375 139.570312 139.804688 139.257812 139.105469 138.972656 C 138.6875 138.796875 138.265625 138.617188 137.847656 138.4375 L 137.199219 138.15625 C 135.460938 137.398438 133.769531 136.53125 132.070312 135.683594 L 131.472656 135.382812 C 128.203125 133.746094 125.019531 132 121.894531 130.101562 C 121.3125 129.75 120.734375 129.40625 120.148438 129.066406 C 118.230469 127.945312 116.421875 126.726562 114.644531 125.390625 C 114.265625 125.117188 113.890625 124.84375 113.511719 124.570312 C 111.085938 122.808594 108.742188 120.996094 106.488281 119.019531 L 105.921875 118.539062 C 103.570312 116.53125 101.515625 114.3125 99.605469 111.882812 L 98.984375 111.113281 C 94.636719 105.652344 91.441406 99.367188 90.335938 92.417969 C 90.277344 91.9375 90.222656 91.460938 90.175781 90.984375 L 90.042969 90 C 89.164062 82 90.277344 74.128906 92.726562 66.515625 L 92.972656 65.742188 C 93.199219 65.046875 93.429688 64.355469 93.664062 63.664062 L 93.867188 63.066406 C 94.363281 61.667969 95.03125 60.402344 95.785156 59.121094 M 198.753906 86.394531 C 198.84375 87.019531 198.84375 87.019531 199.011719 87.667969 C 201.070312 89.144531 204.214844 89.871094 206.703125 90.15625 C 207.113281 90.183594 207.523438 90.203125 207.929688 90.21875 L 208.53125 90.25 C 210.164062 90.292969 211.785156 90.148438 213.410156 89.996094 L 214.09375 89.933594 L 214.742188 89.871094 L 215.320312 89.8125 C 215.910156 89.726562 215.910156 89.726562 216.597656 89.199219 C 216.601562 88.714844 216.601562 88.714844 216.339844 88.179688 C 215.789062 87.835938 215.21875 87.53125 214.621094 87.269531 L 214.15625 87.046875 C 211.324219 85.753906 208.425781 85.507812 205.351562 85.535156 L 204.363281 85.527344 C 202.375 85.53125 200.636719 85.753906 198.753906 86.394531 "/><path style=" stroke:none;fill-rule:nonzero;fill:#c3a45b;fill-opacity:1;" d="M 282.355469 58.359375 C 283.019531 58.980469 283.5 59.5 283.847656 60.339844 L 284.085938 60.902344 L 284.332031 61.511719 L 284.59375 62.160156 C 284.871094 62.84375 285.144531 63.53125 285.414062 64.21875 L 285.683594 64.890625 C 289.289062 73.964844 290.605469 83.714844 289.214844 93.394531 C 288.933594 95.1875 288.511719 96.898438 287.964844 98.628906 C 287.875 98.9375 287.785156 99.242188 287.695312 99.558594 C 286.90625 102.152344 285.746094 104.445312 284.394531 106.785156 L 284.09375 107.308594 C 280.015625 114.335938 274.027344 120.269531 267.574219 125.136719 L 267 125.570312 C 261.636719 129.609375 255.921875 132.949219 250.113281 136.304688 L 249.261719 136.796875 C 248.097656 137.464844 246.933594 138.136719 245.757812 138.785156 L 245.257812 139.0625 C 244.851562 139.292969 244.441406 139.515625 244.03125 139.738281 C 243.277344 140.226562 242.699219 140.792969 242.085938 141.449219 C 248.21875 140.136719 254.320312 138.316406 260.089844 135.84375 C 260.730469 135.570312 261.375 135.304688 262.019531 135.039062 C 266.867188 133.03125 271.351562 130.578125 275.730469 127.6875 L 276.292969 127.3125 C 279.234375 125.355469 281.949219 123.21875 284.5625 120.835938 C 285.105469 120.34375 285.65625 119.863281 286.210938 119.386719 C 288.199219 117.644531 289.898438 115.742188 291.53125 113.667969 L 292.132812 112.90625 C 293.386719 111.285156 294.433594 109.636719 295.355469 107.804688 L 295.609375 107.804688 C 295.78125 116.753906 294.605469 125.589844 290.257812 133.546875 C 289.707031 134.515625 289.105469 135.433594 288.472656 136.351562 L 287.789062 137.367188 C 286.261719 139.613281 284.640625 141.671875 282.738281 143.609375 C 282.355469 144 281.976562 144.394531 281.601562 144.792969 C 279.871094 146.59375 278.015625 148.15625 275.984375 149.605469 L 275.492188 149.960938 C 271.285156 152.964844 266.691406 155.289062 261.964844 157.363281 L 261.304688 157.652344 C 257.523438 159.265625 253.601562 160.453125 249.667969 161.617188 L 247.679688 162.207031 L 246.40625 162.585938 C 244.707031 163.089844 243.011719 163.605469 241.320312 164.132812 C 241.894531 164.472656 242.320312 164.640625 242.988281 164.714844 C 243.835938 164.722656 244.679688 164.726562 245.527344 164.722656 L 246.511719 164.71875 C 257.886719 164.613281 269.769531 163.003906 280.355469 158.714844 C 280.761719 158.554688 281.175781 158.410156 281.589844 158.269531 L 282.101562 158.527344 C 280.027344 162.773438 277.273438 166.394531 273.945312 169.742188 L 273.546875 170.144531 C 265.707031 177.941406 255.339844 183.484375 244.691406 186.316406 C 242.152344 186.960938 239.574219 187.4375 236.988281 187.835938 L 236.453125 187.917969 C 235.179688 188.097656 233.9375 188.121094 232.652344 188.109375 L 232.054688 188.105469 C 231.574219 188.101562 231.09375 188.097656 230.613281 188.09375 C 230.96875 186.414062 231.40625 184.773438 231.890625 183.128906 C 232.761719 179.539062 232.746094 175.863281 232.734375 172.195312 L 232.730469 171.410156 C 232.71875 167.40625 232.59375 163.496094 231.890625 159.546875 L 231.730469 158.65625 C 230.589844 152.40625 228.984375 146.445312 226.28125 140.683594 L 226.019531 140.121094 C 224.34375 136.574219 222.292969 133.269531 220.164062 129.980469 C 220.84375 129.527344 221.496094 129.179688 222.226562 128.824219 C 225.933594 127.011719 225.933594 127.011719 229.488281 124.921875 C 230.175781 124.480469 230.875 124.070312 231.582031 123.664062 C 242.25 117.511719 252.890625 109.832031 260.945312 100.414062 C 261.195312 100.128906 261.445312 99.84375 261.695312 99.5625 C 268.960938 91.285156 275.335938 82.058594 279.042969 71.613281 L 279.273438 70.972656 C 280.746094 66.859375 281.570312 62.644531 282.355469 58.359375 "/><path style=" stroke:none;fill-rule:nonzero;fill:#c3a45a;fill-opacity:1;" d="M 180.402344 242.890625 L 180.914062 242.890625 L 180.828125 243.308594 C 180.675781 244.101562 180.539062 244.898438 180.402344 245.695312 L 180.304688 246.242188 C 178.648438 255.574219 179.539062 265.316406 182.710938 274.230469 C 185 280.40625 188.339844 286.339844 193.386719 290.6875 C 196.117188 292.808594 199.09375 294.421875 202.324219 295.652344 L 202.070312 296.160156 C 197.257812 297.703125 190.910156 297.296875 186.003906 296.3125 C 181.246094 295.25 176.902344 293.289062 173.277344 290.019531 C 170.40625 287.328125 168.386719 284.132812 167.054688 280.453125 L 166.871094 279.949219 C 165.453125 275.765625 165.4375 270.859375 166.128906 266.53125 C 167.890625 258.726562 172.15625 251.746094 177.503906 245.886719 C 177.957031 245.394531 178.414062 244.90625 178.875 244.421875 L 179.375 243.886719 C 179.707031 243.542969 180.054688 243.214844 180.402344 242.890625 "/><path style=" stroke:none;fill-rule:nonzero;fill:#c3a45b;fill-opacity:1;" d="M 198.246094 229.890625 L 198.5 230.402344 C 198.359375 231.023438 198.199219 231.640625 198.023438 232.25 C 196.492188 237.617188 197.066406 243.203125 198.386719 248.558594 C 199.664062 253.523438 202.300781 258.101562 205.875 261.773438 C 209.265625 265.089844 213.519531 267.191406 218.074219 268.386719 C 223.035156 269.585938 227.960938 269.21875 232.910156 268.125 C 230.820312 270.316406 227.839844 271.511719 225.007812 272.457031 C 219.398438 274.0625 213.589844 274.25 207.925781 272.839844 C 203.058594 271.570312 198.65625 269.109375 195.074219 265.574219 C 193.84375 264.320312 192.8125 262.984375 191.875 261.496094 C 191.742188 261.3125 191.613281 261.125 191.480469 260.933594 C 189.671875 258.207031 188.53125 254.558594 188.304688 251.300781 C 188.113281 247.199219 188.230469 243.40625 189.929688 239.59375 C 191.945312 235.804688 195.015625 232.667969 198.246094 229.890625 "/><path style=" stroke:none;fill-rule:nonzero;fill:#49444a;fill-opacity:1;" d="M 65.707031 253.085938 C 66.394531 253.726562 66.839844 254.277344 67.238281 255.125 L 67.746094 255.636719 L 68 256.398438 L 68.511719 256.910156 C 68.773438 257.332031 69.027344 257.757812 69.277344 258.183594 L 69.675781 258.835938 C 70.039062 259.457031 70.039062 259.457031 70.296875 260 C 70.53125 260.5 70.53125 260.5 70.964844 260.890625 L 71.316406 261.242188 L 71.316406 261.753906 L 71.824219 262.261719 L 72.335938 263.28125 L 72.84375 263.792969 L 73.355469 264.8125 L 73.863281 265.320312 C 74.199219 265.835938 74.511719 266.359375 74.828125 266.882812 C 75.136719 267.394531 75.136719 267.394531 75.648438 267.871094 C 76.0625 268.394531 76.425781 268.914062 76.761719 269.496094 C 77.160156 270.136719 77.613281 270.683594 78.101562 271.257812 C 78.480469 271.730469 78.808594 272.21875 79.136719 272.726562 C 80.175781 274.320312 81.359375 275.804688 82.53125 277.300781 L 82.273438 277.808594 C 78.859375 273.613281 75.585938 269.316406 72.589844 264.8125 L 72.261719 264.316406 C 70.679688 261.945312 69.1875 259.523438 67.714844 257.085938 L 67.203125 256.242188 L 66.726562 255.449219 L 66.296875 254.738281 C 66 254.175781 65.824219 253.710938 65.707031 253.085938 "/><path style=" stroke:none;fill-rule:nonzero;fill:#dab675;fill-opacity:1;" d="M 95.785156 59.121094 C 96.296875 59.890625 96.402344 60.269531 96.550781 61.160156 C 97.574219 66.964844 99.539062 71.96875 102.183594 77.222656 C 102.410156 77.730469 102.410156 77.730469 102.410156 78.238281 L 101.902344 78.238281 C 98.925781 72.363281 96.222656 65.996094 95.527344 59.378906 Z M 95.785156 59.121094 "/><path style=" stroke:none;fill-rule:nonzero;fill:#51454a;fill-opacity:1;" d="M 82.53125 277.808594 L 83.039062 277.808594 C 83.367188 278.1875 83.695312 278.5625 84.003906 278.953125 C 84.332031 279.375 84.332031 279.375 84.824219 279.847656 L 85.84375 281.125 L 86.351562 281.632812 C 86.738281 282.140625 87.113281 282.65625 87.492188 283.167969 C 87.867188 283.675781 87.867188 283.675781 88.3125 284.085938 L 88.648438 284.4375 L 88.648438 284.945312 L 89.410156 285.203125 C 89.796875 285.601562 89.796875 285.601562 90.207031 286.109375 C 91.058594 287.117188 91.988281 287.960938 93 288.804688 C 93.496094 289.285156 93.714844 289.679688 94 290.300781 C 94.328125 290.648438 94.667969 290.988281 95.019531 291.320312 L 94.765625 291.828125 C 91.417969 288.53125 91.417969 288.53125 90.140625 287.023438 C 89.628906 286.433594 89.101562 285.867188 88.570312 285.296875 C 87.082031 283.703125 85.667969 282.070312 84.3125 280.359375 L 83.777344 279.683594 C 82.863281 278.527344 82.863281 278.527344 82.53125 278.066406 Z M 82.53125 277.808594 "/><path style=" stroke:none;fill-rule:nonzero;fill:#d4b176;fill-opacity:1;" d="M 193.914062 291.574219 C 194.894531 291.738281 195.570312 292.210938 196.398438 292.753906 C 198.273438 293.953125 200.269531 294.808594 202.324219 295.652344 L 201.8125 296.160156 C 198.894531 295.335938 196.292969 293.691406 193.914062 291.828125 Z M 193.914062 291.574219 "/><path style=" stroke:none;fill-rule:nonzero;fill:#ddc07f;fill-opacity:1;" d="M 180.402344 242.890625 L 180.914062 243.144531 C 180.515625 244.128906 179.90625 244.734375 179.128906 245.441406 C 178.628906 245.804688 178.121094 246.132812 177.601562 246.460938 L 177.089844 246.203125 Z M 180.402344 242.890625 "/><path style=" stroke:none;fill-rule:nonzero;fill:#dab976;fill-opacity:1;" d="M 232.398438 268.125 L 232.910156 268.378906 C 232.46875 268.679688 232.03125 268.976562 231.585938 269.273438 L 230.84375 269.773438 C 230.105469 270.164062 230.105469 270.164062 229.375 270.21875 L 228.832031 270.164062 L 229.085938 269.652344 C 229.503906 269.46875 229.929688 269.300781 230.359375 269.144531 L 230.359375 268.632812 C 230.6875 268.542969 231.019531 268.453125 231.347656 268.363281 L 231.902344 268.210938 Z M 232.398438 268.125 "/><path style=" stroke:none;fill-rule:nonzero;fill:#d3b270;fill-opacity:1;" d="M 148.542969 277.554688 C 149.652344 278.257812 150.605469 279.015625 151.570312 279.914062 L 152.316406 280.601562 L 152.875 281.125 L 152.113281 281.125 C 151.53125 280.695312 150.96875 280.242188 150.421875 279.769531 L 149.960938 279.382812 C 149.5625 279.042969 149.179688 278.683594 148.796875 278.320312 Z M 148.542969 277.554688 "/><path style=" stroke:none;fill-rule:nonzero;fill:#ddbc80;fill-opacity:1;" d="M 95.785156 59.121094 C 96.320312 59.929688 96.378906 60.273438 96.453125 61.210938 L 96.511719 61.90625 L 96.546875 62.4375 L 96.039062 62.179688 C 95.648438 61.222656 95.441406 60.414062 95.527344 59.378906 Z M 95.785156 59.121094 "/><path style=" stroke:none;fill-rule:nonzero;fill:#49444a;fill-opacity:1;" d="M 82.53125 277.808594 L 83.039062 277.808594 C 83.367188 278.1875 83.695312 278.5625 84.003906 278.953125 C 84.332031 279.375 84.332031 279.375 84.824219 279.847656 C 84.984375 280.519531 84.984375 280.519531 85.078125 281.125 C 84.078125 280.179688 83.296875 279.207031 82.53125 278.066406 Z M 82.53125 277.808594 "/><path style=" stroke:none;fill-rule:nonzero;fill:#d1b77c;fill-opacity:1;" d="M 121.269531 187.582031 L 123.566406 188.09375 L 123.054688 188.347656 L 123.308594 189.113281 C 122.453125 188.742188 121.90625 188.261719 121.269531 187.582031 "/></g></svg>