<svg xmlns="http://www.w3.org/2000/svg" width="512" height="512" viewBox="0 0 375 375">
  <rect width="375" height="375" fill="#5e503f" rx="75"/>
  <g fill="#ffffff" transform="translate(-19.502098, 296.737322) scale(0.65) translate(35, -35)">
    <path d="M 383.5625 68.78125 C 372.226562 71.75 362.175781 73.234375 353.40625 73.234375 C 344.644531 73.234375 336.890625 72.691406 330.140625 71.609375 C 323.398438 70.535156 316.1875 68.445312 308.5 65.34375 C 300.8125 62.238281 293.59375 58.660156 286.84375 54.609375 C 280.101562 50.566406 273.363281 45.582031 266.625 39.65625 C 254.21875 29.675781 242.957031 18.882812 232.84375 7.28125 C 222.726562 -4.3125 203.238281 -26.085938 174.375 -58.046875 C 145.519531 -90.015625 126.367188 -111.257812 116.921875 -121.78125 C 107.484375 -132.300781 100.203125 -137.832031 95.078125 -138.375 L 95.078125 -142.421875 C 110.722656 -142.421875 121.175781 -142.753906 126.4375 -143.421875 C 131.695312 -144.097656 137.289062 -145.3125 143.21875 -147.0625 C 149.15625 -148.820312 154.148438 -151.1875 158.203125 -154.15625 C 174.109375 -164.40625 182.0625 -181.394531 182.0625 -205.125 C 182.0625 -224.820312 177.675781 -240.601562 168.90625 -252.46875 C 160.144531 -264.332031 147.804688 -270.398438 131.890625 -270.671875 L 81.734375 -270.671875 L 81.734375 -29.53125 C 81.734375 -22.789062 84.226562 -16.859375 89.21875 -11.734375 C 94.207031 -6.609375 100.34375 -4.046875 107.625 -4.046875 L 112.484375 -4.046875 L 112.875 0 L 24.28125 0 L 24.28125 -4.046875 L 29.53125 -4.046875 C 36.28125 -4.046875 42.21875 -6.472656 47.34375 -11.328125 C 52.46875 -16.179688 55.160156 -22.113281 55.421875 -29.125 L 55.421875 -253.6875 C 55.160156 -260.695312 52.535156 -266.695312 47.546875 -271.6875 C 42.554688 -276.675781 36.550781 -279.171875 29.53125 -279.171875 L 24.28125 -279.171875 L 24.28125 -283.21875 L 133.515625 -283.21875 C 157.253906 -283.21875 176.335938 -276.539062 190.765625 -263.1875 C 205.191406 -249.832031 212.40625 -232.164062 212.40625 -210.1875 C 212.40625 -188.207031 205.796875 -169.328125 192.578125 -153.546875 C 179.367188 -137.765625 163.1875 -129.875 144.03125 -129.875 C 144.03125 -129.875 143.894531 -129.875 143.625 -129.875 C 152.800781 -120.164062 163.1875 -108.835938 174.78125 -95.890625 C 221.445312 -44.367188 251.382812 -12.003906 264.59375 1.203125 C 277.8125 14.421875 289.476562 25.28125 299.59375 33.78125 C 309.71875 42.28125 318.6875 48.550781 326.5 52.59375 C 342.414062 61.226562 358.195312 65.546875 373.84375 65.546875 C 377.082031 65.546875 380.320312 65.273438 383.5625 64.734375 Z M 383.5625 68.78125 "/>
  </g>
</svg>
